<?xml version="1.0" encoding="utf-8"?>
<!-- Generator: Adobe Illustrator 25.0.0, SVG Export Plug-In . SVG Version: 6.00 Build 0)  -->
<svg version="1.1" id="Layer_1" xmlns="http://www.w3.org/2000/svg" xmlns:xlink="http://www.w3.org/1999/xlink" x="0px" y="0px"
	 viewBox="0 0 100 100" style="enable-background:new 0 0 100 100;" xml:space="preserve">
<style type="text/css">
	.st0{fill:url(#Combined_Shape_1_);}
	.st1{fill:url(#Combined_Shape-2_1_);}
	.st2{fill:url(#Path_4_1_);}
</style>
<g id="Group_2" transform="translate(0 0.003)">
	<g id="Group">
		
			<linearGradient id="Combined_Shape_1_" gradientUnits="userSpaceOnUse" x1="-481.4393" y1="581.0048" x2="-479.3555" y2="578.9211" gradientTransform="matrix(33.1098 0 0 -36.261 15935.6768 21085.1465)">
			<stop  offset="0" style="stop-color:#1B97DE"/>
			<stop  offset="1" style="stop-color:#47CCAF"/>
		</linearGradient>
		<path id="Combined_Shape" class="st0" d="M12.6,84.3V53.6l-11,7.6c-0.5,0.3-1.1,0.2-1.5-0.2C0.1,60.8,0,60.6,0,60.4V39.8
			c0-0.6,0.4-1.1,1-1.1c0.2,0,0.4,0.1,0.6,0.2l11,7.6V15.7c0-1.9,1.6-3.5,3.5-3.5c0.7,0,1.4,0.2,2,0.6l49.4,34.3
			c1.6,1.1,2,3.3,0.9,4.9c-0.2,0.3-0.5,0.6-0.9,0.9L18.1,87.2c-0.6,0.4-1.3,0.6-2,0.6C14.2,87.8,12.6,86.2,12.6,84.3z"/>
		
			<linearGradient id="Combined_Shape-2_1_" gradientUnits="userSpaceOnUse" x1="-480.9522" y1="581.0048" x2="-478.8684" y2="578.9211" gradientTransform="matrix(33.1098 0 0 -36.261 15950.5566 21085.1465)">
			<stop  offset="0" style="stop-color:#F8D092"/>
			<stop  offset="1" style="stop-color:#F16872"/>
		</linearGradient>
		<path id="Combined_Shape-2" class="st1" d="M43.6,84.3V53.6l-11,7.6c-0.5,0.3-1.1,0.2-1.5-0.2c-0.1-0.2-0.2-0.4-0.2-0.6V39.8
			c0-0.6,0.4-1.1,1-1.1c0.2,0,0.4,0.1,0.6,0.2l11,7.6V15.7c0-1.9,1.6-3.5,3.5-3.5c0.7,0,1.4,0.2,2,0.6l49.4,34.3
			c1.6,1.1,2,3.3,0.9,4.9c-0.2,0.3-0.5,0.6-0.9,0.9L49.1,87.2c-0.6,0.4-1.3,0.6-2,0.6C45.2,87.8,43.6,86.2,43.6,84.3z"/>
	</g>
	
		<linearGradient id="Path_4_1_" gradientUnits="userSpaceOnUse" x1="-474.2466" y1="571.1807" x2="-472.1629" y2="569.0969" gradientTransform="matrix(18.2176 0 0 -18.627 8668.2744 10672.2617)">
		<stop  offset="0" style="stop-color:#9A7EAA"/>
		<stop  offset="1" style="stop-color:#F16872"/>
	</linearGradient>
	<path id="Path_4" class="st2" d="M43.6,69.3l23.8-16.4c1.6-1.1,2-3.3,0.9-4.9c-0.2-0.3-0.5-0.6-0.9-0.9L43.6,30.5v16l-11.1-7.6
		c-0.5-0.3-1.1-0.2-1.4,0.3c-0.1,0.2-0.2,0.4-0.2,0.6v20.7c0,0.6,0.4,1,1,1c0.2,0,0.4-0.1,0.6-0.2l11.1-7.7V69.3z"/>
</g>
</svg>
