<?xml version="1.0" encoding="utf-8"?>
<!-- Generator: Adobe Illustrator 25.0.0, SVG Export Plug-In . SVG Version: 6.00 Build 0)  -->
<svg version="1.1" id="Layer_1" xmlns="http://www.w3.org/2000/svg" xmlns:xlink="http://www.w3.org/1999/xlink" x="0px" y="0px"
	 viewBox="0 0 100 100" style="enable-background:new 0 0 100 100;" xml:space="preserve">
<style type="text/css">
	.st0{fill:#092230;}
</style>
<g id="Group" transform="translate(0 0.004)">
	<path id="Combined_Shape" class="st0" d="M47.2,87.8c-1.9,0-3.5-1.6-3.5-3.5V69.4L18.1,87.1c-0.6,0.4-1.3,0.6-2,0.6
		c-1.9,0-3.5-1.6-3.5-3.5V53.6l-11,7.6c-0.2,0.1-0.4,0.2-0.6,0.2c-0.3,0-0.5-0.1-0.7-0.3C0.1,60.9,0,60.6,0,60.4V39.8
		c0-0.6,0.5-1.1,1.1-1.1c0.2,0,0.4,0.1,0.6,0.2l11,7.6V15.7c0-1.9,1.6-3.5,3.5-3.5c0.7,0,1.4,0.2,2,0.6l25.5,17.7v16l-11.1-7.6
		c-0.2-0.1-0.4-0.2-0.6-0.2c-0.6,0-1,0.4-1,1v20.7c0,0.6,0.4,1,1,1c0.2,0,0.4-0.1,0.6-0.2l11.1-7.7v15.7L67.5,53
		c1.6-1.1,2-3.3,0.9-4.9c-0.2-0.3-0.5-0.6-0.9-0.9L43.7,30.5V15.7c0-1.9,1.6-3.5,3.5-3.5c0.7,0,1.4,0.2,2,0.6l49.3,34.3
		c1.6,1.1,2,3.3,0.9,4.9c-0.2,0.3-0.5,0.6-0.9,0.9L49.2,87.1C48.6,87.5,47.9,87.8,47.2,87.8z"/>
</g>
</svg>