<svg width="900" height="596" viewBox="0 0 900 596" fill="none" xmlns="http://www.w3.org/2000/svg">
<path opacity="0.6" fill-rule="evenodd" clip-rule="evenodd" d="M428 225C428 200.646 447.768 180.9 472.154 180.9C475.835 180.9 479.353 181.482 482.772 182.329C494.294 169.903 510.628 162 528.924 162C563.761 162 592 190.206 592 224.998H428V225Z" fill="white"/>
<path opacity="0.251418" fill-rule="evenodd" clip-rule="evenodd" d="M526.253 106.601C529.322 106.601 532.222 107.209 535.002 108.088C543.808 95.3664 558.414 87 575.002 87C591.59 87 606.198 95.3644 615.002 108.088C617.782 107.207 620.682 106.601 623.751 106.601C639.906 106.601 653 119.764 653 136H497C497.004 119.764 510.1 106.601 526.253 106.601Z" fill="white"/>
<path fill-rule="evenodd" clip-rule="evenodd" d="M318.63 445L729.626 40.5489C732.87 37.3571 738.119 37.5099 741.171 40.8851L901 217.623V445H318.63Z" fill="#6C92A8"/>
<path fill-rule="evenodd" clip-rule="evenodd" d="M312.63 527L841.672 6.38361C845.016 3.09252 850.462 3.37294 853.45 6.99015L901 64.5413V527H312.63Z" fill="#487793"/>
<path opacity="0.764765" fill-rule="evenodd" clip-rule="evenodd" d="M726 120.998C726 87.7512 753.121 60.7994 786.576 60.7994C791.625 60.7994 796.454 61.5935 801.142 62.7498C816.95 45.7871 839.36 35 864.46 35C912.253 35 951 73.5031 951 121H726V120.998Z" fill="white"/>
<path fill-rule="evenodd" clip-rule="evenodd" d="M318.494 595.981L899.562 16.2204L900.147 595.981H318.494Z" fill="#1B5678"/>
</svg>
