<svg width="589" height="596" viewBox="0 0 589 596" fill="none" xmlns="http://www.w3.org/2000/svg">
<path opacity="0.23" fill-rule="evenodd" clip-rule="evenodd" d="M311.815 70C308.018 70 304.431 70.743 300.991 71.8215C290.097 56.2431 272.025 46 251.501 46C230.978 46 212.908 56.2431 202.012 71.8215C198.572 70.743 194.985 70 191.188 70C171.202 70 155 86.1176 155 106H348C348.003 86.1176 331.801 70 311.815 70Z" fill="white"/>
<path fill-rule="evenodd" clip-rule="evenodd" d="M582.37 445L171.374 40.5489C168.13 37.3571 162.881 37.5099 159.829 40.8851L0 217.623V445H582.37Z" fill="#1B5678"/>
<path opacity="0.53" fill-rule="evenodd" clip-rule="evenodd" d="M167.563 65.6C164.475 65.6 161.555 66.2075 158.758 67.0889C149.896 54.3659 135.195 46 118.5 46C101.805 46 87.104 54.3659 78.2416 67.0889C75.4445 66.2075 72.5253 65.6 69.4366 65.6C53.1777 65.6 40 78.7638 40 95H197C197.002 78.7638 183.822 65.6 167.563 65.6Z" fill="white"/>
<path fill-rule="evenodd" clip-rule="evenodd" d="M588.37 527L59.3284 6.38361C55.9841 3.09252 50.5384 3.37294 47.5498 6.99015L0 64.5413V527H588.37Z" fill="#154460"/>
<path fill-rule="evenodd" clip-rule="evenodd" d="M580.506 595.981L-0.562482 16.2204L-1.14746 595.981H580.506Z" fill="#10364C"/>
</svg>
