<svg width="1334" height="628" viewBox="0 0 1334 628" fill="none" xmlns="http://www.w3.org/2000/svg">
<g opacity="0.296619">
<g opacity="0.3" filter="url(#filter0_d)">
<circle cx="350" cy="188" r="2" transform="rotate(90 350 188)" fill="white"/>
<circle cx="276" cy="122" r="2" transform="rotate(90 276 122)" fill="white"/>
<circle cx="192" cy="84" r="2" transform="rotate(90 192 84)" fill="white"/>
<circle cx="94" cy="202" r="2" transform="rotate(90 94 202)" fill="white"/>
<circle cx="60" cy="110" r="2" transform="rotate(90 60 110)" fill="white"/>
<circle cx="10" cy="240" r="2" transform="rotate(90 10 240)" fill="white"/>
<circle cx="56" cy="356" r="2" transform="rotate(90 56 356)" fill="white"/>
<circle cx="98" cy="290" r="2" transform="rotate(90 98 290)" fill="white"/>
<circle cx="234" cy="282" r="2" transform="rotate(90 234 282)" fill="white"/>
<circle cx="282" cy="250" r="2" transform="rotate(90 282 250)" fill="white"/>
<circle cx="314" cy="302" r="2" transform="rotate(90 314 302)" fill="white"/>
<circle cx="272" cy="322" r="2" transform="rotate(90 272 322)" fill="white"/>
<circle cx="218" cy="386" r="2" transform="rotate(90 218 386)" fill="white"/>
<circle cx="110" cy="46" r="2" transform="rotate(90 110 46)" fill="white"/>
</g>
<circle cx="229" cy="59" r="4" fill="white"/>
<circle cx="85" cy="99" r="4" fill="white"/>
<circle cx="139" cy="315" r="4" fill="white"/>
<circle cx="93" cy="329" r="4" fill="white"/>
<circle cx="276" cy="358" r="3" fill="white"/>
<circle cx="337" cy="253" r="4" fill="white"/>
<circle cx="28" cy="278" r="3" fill="white"/>
<g opacity="0.3" filter="url(#filter1_d)">
<circle cx="567" cy="162" r="2" transform="rotate(-90 567 162)" fill="white"/>
<circle cx="641" cy="228" r="2" transform="rotate(-90 641 228)" fill="white"/>
<circle cx="725" cy="266" r="2" transform="rotate(-90 725 266)" fill="white"/>
<circle cx="823" cy="148" r="2" transform="rotate(-90 823 148)" fill="white"/>
<circle cx="857" cy="240" r="2" transform="rotate(-90 857 240)" fill="white"/>
<circle cx="907" cy="110" r="2" transform="rotate(-90 907 110)" fill="white"/>
<circle cx="819" cy="60" r="2" transform="rotate(-90 819 60)" fill="white"/>
<circle cx="683" cy="68" r="2" transform="rotate(-90 683 68)" fill="white"/>
<circle cx="635" cy="100" r="2" transform="rotate(-90 635 100)" fill="white"/>
<circle cx="603" cy="48" r="2" transform="rotate(-90 603 48)" fill="white"/>
<circle cx="645" cy="28" r="2" transform="rotate(-90 645 28)" fill="white"/>
<circle cx="807" cy="304" r="2" transform="rotate(-90 807 304)" fill="white"/>
</g>
<circle cx="790" cy="187" r="4" transform="rotate(-180 790 187)" fill="white"/>
<circle cx="778" cy="35" r="4" transform="rotate(-180 778 35)" fill="white"/>
<circle cx="824" cy="21" r="4" transform="rotate(-180 824 21)" fill="white"/>
<circle cx="580" cy="97" r="4" transform="rotate(-180 580 97)" fill="white"/>
<circle cx="889" cy="72" r="3" transform="rotate(-180 889 72)" fill="white"/>
<g opacity="0.3" filter="url(#filter2_d)">
<circle cx="687" cy="416" r="2" transform="rotate(90 687 416)" fill="white"/>
<circle cx="613" cy="350" r="2" transform="rotate(90 613 350)" fill="white"/>
<circle cx="529" cy="312" r="2" transform="rotate(90 529 312)" fill="white"/>
<circle cx="431" cy="430" r="2" transform="rotate(90 431 430)" fill="white"/>
<circle cx="397" cy="338" r="2" transform="rotate(90 397 338)" fill="white"/>
<circle cx="347" cy="468" r="2" transform="rotate(90 347 468)" fill="white"/>
<circle cx="393" cy="584" r="2" transform="rotate(90 393 584)" fill="white"/>
<circle cx="435" cy="518" r="2" transform="rotate(90 435 518)" fill="white"/>
<circle cx="571" cy="510" r="2" transform="rotate(90 571 510)" fill="white"/>
<circle cx="619" cy="478" r="2" transform="rotate(90 619 478)" fill="white"/>
<circle cx="651" cy="530" r="2" transform="rotate(90 651 530)" fill="white"/>
<circle cx="609" cy="550" r="2" transform="rotate(90 609 550)" fill="white"/>
<circle cx="555" cy="614" r="2" transform="rotate(90 555 614)" fill="white"/>
<circle cx="447" cy="274" r="2" transform="rotate(90 447 274)" fill="white"/>
</g>
<circle cx="566" cy="287" r="4" fill="white"/>
<circle cx="422" cy="327" r="4" fill="white"/>
<circle cx="476" cy="543" r="4" fill="white"/>
<circle cx="430" cy="557" r="4" fill="white"/>
<circle cx="613" cy="586" r="3" fill="white"/>
<circle cx="674" cy="481" r="4" fill="white"/>
<circle cx="365" cy="506" r="3" fill="white"/>
<g opacity="0.3" filter="url(#filter3_d)">
<circle cx="879" cy="274" r="2" fill="white"/>
<circle cx="813" cy="348" r="2" fill="white"/>
<circle cx="775" cy="432" r="2" fill="white"/>
<circle cx="893" cy="530" r="2" fill="white"/>
<circle cx="801" cy="564" r="2" fill="white"/>
<circle cx="931" cy="614" r="2" fill="white"/>
<circle cx="1047" cy="568" r="2" fill="white"/>
<circle cx="981" cy="526" r="2" fill="white"/>
<circle cx="973" cy="390" r="2" fill="white"/>
<circle cx="941" cy="342" r="2" fill="white"/>
<circle cx="993" cy="310" r="2" fill="white"/>
<circle cx="1013" cy="352" r="2" fill="white"/>
<circle cx="1077" cy="406" r="2" fill="white"/>
<circle cx="737" cy="514" r="2" fill="white"/>
</g>
<circle cx="1006" cy="485" r="4" transform="rotate(-90 1006 485)" fill="white"/>
<circle cx="1020" cy="531" r="4" transform="rotate(-90 1020 531)" fill="white"/>
<circle cx="1049" cy="348" r="3" transform="rotate(-90 1049 348)" fill="white"/>
<circle cx="944" cy="287" r="4" transform="rotate(-90 944 287)" fill="white"/>
<circle cx="969" cy="596" r="3" transform="rotate(-90 969 596)" fill="white"/>
<g opacity="0.3" filter="url(#filter4_d)">
<circle cx="1126" cy="96" r="2" fill="white"/>
<circle cx="1060" cy="170" r="2" fill="white"/>
<circle cx="1022" cy="254" r="2" fill="white"/>
<circle cx="1140" cy="352" r="2" fill="white"/>
<circle cx="1048" cy="386" r="2" fill="white"/>
<circle cx="1178" cy="436" r="2" fill="white"/>
<circle cx="1294" cy="390" r="2" fill="white"/>
<circle cx="1228" cy="348" r="2" fill="white"/>
<circle cx="1220" cy="212" r="2" fill="white"/>
<circle cx="1188" cy="164" r="2" fill="white"/>
<circle cx="1240" cy="132" r="2" fill="white"/>
<circle cx="1260" cy="174" r="2" fill="white"/>
<circle cx="1324" cy="228" r="2" fill="white"/>
<circle cx="984" cy="336" r="2" fill="white"/>
</g>
<circle cx="1037" cy="361" r="4" transform="rotate(-90 1037 361)" fill="white"/>
<circle cx="1253" cy="307" r="4" transform="rotate(-90 1253 307)" fill="white"/>
<circle cx="1267" cy="353" r="4" transform="rotate(-90 1267 353)" fill="white"/>
<circle cx="1296" cy="170" r="3" transform="rotate(-90 1296 170)" fill="white"/>
<circle cx="1191" cy="109" r="4" transform="rotate(-90 1191 109)" fill="white"/>
<circle cx="1216" cy="418" r="3" transform="rotate(-90 1216 418)" fill="white"/>
</g>
<defs>
<filter id="filter0_d" x="0" y="40" width="360" height="360" filterUnits="userSpaceOnUse" color-interpolation-filters="sRGB">
<feFlood flood-opacity="0" result="BackgroundImageFix"/>
<feColorMatrix in="SourceAlpha" type="matrix" values="0 0 0 0 0 0 0 0 0 0 0 0 0 0 0 0 0 0 127 0"/>
<feOffset dy="4"/>
<feGaussianBlur stdDeviation="4"/>
<feColorMatrix type="matrix" values="0 0 0 0 0 0 0 0 0 0 0 0 0 0 0 0 0 0 0.5 0"/>
<feBlend mode="normal" in2="BackgroundImageFix" result="effect1_dropShadow"/>
<feBlend mode="normal" in="SourceGraphic" in2="effect1_dropShadow" result="shape"/>
</filter>
<filter id="filter1_d" x="557" y="-42" width="360" height="360" filterUnits="userSpaceOnUse" color-interpolation-filters="sRGB">
<feFlood flood-opacity="0" result="BackgroundImageFix"/>
<feColorMatrix in="SourceAlpha" type="matrix" values="0 0 0 0 0 0 0 0 0 0 0 0 0 0 0 0 0 0 127 0"/>
<feOffset dy="4"/>
<feGaussianBlur stdDeviation="4"/>
<feColorMatrix type="matrix" values="0 0 0 0 0 0 0 0 0 0 0 0 0 0 0 0 0 0 0.5 0"/>
<feBlend mode="normal" in2="BackgroundImageFix" result="effect1_dropShadow"/>
<feBlend mode="normal" in="SourceGraphic" in2="effect1_dropShadow" result="shape"/>
</filter>
<filter id="filter2_d" x="337" y="268" width="360" height="360" filterUnits="userSpaceOnUse" color-interpolation-filters="sRGB">
<feFlood flood-opacity="0" result="BackgroundImageFix"/>
<feColorMatrix in="SourceAlpha" type="matrix" values="0 0 0 0 0 0 0 0 0 0 0 0 0 0 0 0 0 0 127 0"/>
<feOffset dy="4"/>
<feGaussianBlur stdDeviation="4"/>
<feColorMatrix type="matrix" values="0 0 0 0 0 0 0 0 0 0 0 0 0 0 0 0 0 0 0.5 0"/>
<feBlend mode="normal" in2="BackgroundImageFix" result="effect1_dropShadow"/>
<feBlend mode="normal" in="SourceGraphic" in2="effect1_dropShadow" result="shape"/>
</filter>
<filter id="filter3_d" x="727" y="268" width="360" height="360" filterUnits="userSpaceOnUse" color-interpolation-filters="sRGB">
<feFlood flood-opacity="0" result="BackgroundImageFix"/>
<feColorMatrix in="SourceAlpha" type="matrix" values="0 0 0 0 0 0 0 0 0 0 0 0 0 0 0 0 0 0 127 0"/>
<feOffset dy="4"/>
<feGaussianBlur stdDeviation="4"/>
<feColorMatrix type="matrix" values="0 0 0 0 0 0 0 0 0 0 0 0 0 0 0 0 0 0 0.5 0"/>
<feBlend mode="normal" in2="BackgroundImageFix" result="effect1_dropShadow"/>
<feBlend mode="normal" in="SourceGraphic" in2="effect1_dropShadow" result="shape"/>
</filter>
<filter id="filter4_d" x="974" y="90" width="360" height="360" filterUnits="userSpaceOnUse" color-interpolation-filters="sRGB">
<feFlood flood-opacity="0" result="BackgroundImageFix"/>
<feColorMatrix in="SourceAlpha" type="matrix" values="0 0 0 0 0 0 0 0 0 0 0 0 0 0 0 0 0 0 127 0"/>
<feOffset dy="4"/>
<feGaussianBlur stdDeviation="4"/>
<feColorMatrix type="matrix" values="0 0 0 0 0 0 0 0 0 0 0 0 0 0 0 0 0 0 0.5 0"/>
<feBlend mode="normal" in2="BackgroundImageFix" result="effect1_dropShadow"/>
<feBlend mode="normal" in="SourceGraphic" in2="effect1_dropShadow" result="shape"/>
</filter>
</defs>
</svg>
