<svg width="1334" height="627" viewBox="0 0 1334 627" fill="none" xmlns="http://www.w3.org/2000/svg">
<g opacity="0.3" filter="url(#filter0_d)">
<circle r="2" transform="matrix(0 1 1 0 984 187)" fill="white"/>
<circle r="2" transform="matrix(0 1 1 0 1058 121)" fill="white"/>
<circle r="2" transform="matrix(0 1 1 0 1142 83)" fill="white"/>
<circle r="2" transform="matrix(0 1 1 0 1240 201)" fill="white"/>
<circle r="2" transform="matrix(0 1 1 0 1274 109)" fill="white"/>
<circle r="2" transform="matrix(0 1 1 0 1324 239)" fill="white"/>
<circle r="2" transform="matrix(0 1 1 0 1278 355)" fill="white"/>
<circle r="2" transform="matrix(0 1 1 0 1236 289)" fill="white"/>
<circle r="2" transform="matrix(0 1 1 0 1100 281)" fill="white"/>
<circle r="2" transform="matrix(0 1 1 0 1052 249)" fill="white"/>
<circle r="2" transform="matrix(0 1 1 0 1020 301)" fill="white"/>
<circle r="2" transform="matrix(0 1 1 0 1062 321)" fill="white"/>
<circle r="2" transform="matrix(0 1 1 0 1116 385)" fill="white"/>
<circle r="2" transform="matrix(0 1 1 0 1224 45)" fill="white"/>
</g>
<circle r="4" transform="matrix(-1 0 0 1 1105 58)" fill="white"/>
<circle r="4" transform="matrix(-1 0 0 1 1249 98)" fill="white"/>
<circle r="4" transform="matrix(-1 0 0 1 1195 314)" fill="white"/>
<circle r="4" transform="matrix(-1 0 0 1 1241 328)" fill="white"/>
<circle r="3" transform="matrix(-1 0 0 1 1058 357)" fill="white"/>
<circle r="4" transform="matrix(-1 0 0 1 997 252)" fill="white"/>
<circle r="3" transform="matrix(-1 0 0 1 1306 277)" fill="white"/>
<g opacity="0.3" filter="url(#filter1_d)">
<circle r="2" transform="matrix(0 -1 -1 0 767 161)" fill="white"/>
<circle r="2" transform="matrix(0 -1 -1 0 693 227)" fill="white"/>
<circle r="2" transform="matrix(0 -1 -1 0 609 265)" fill="white"/>
<circle r="2" transform="matrix(0 -1 -1 0 511 147)" fill="white"/>
<circle r="2" transform="matrix(0 -1 -1 0 477 239)" fill="white"/>
<circle r="2" transform="matrix(0 -1 -1 0 427 109)" fill="white"/>
<circle r="2" transform="matrix(0 -1 -1 0 515 59)" fill="white"/>
<circle r="2" transform="matrix(0 -1 -1 0 651 67)" fill="white"/>
<circle r="2" transform="matrix(0 -1 -1 0 699 99)" fill="white"/>
<circle r="2" transform="matrix(0 -1 -1 0 731 47)" fill="white"/>
<circle r="2" transform="matrix(0 -1 -1 0 689 27)" fill="white"/>
<circle r="2" transform="matrix(0 -1 -1 0 527 303)" fill="white"/>
</g>
<circle r="4" transform="matrix(1 0 0 -1 556 34)" fill="white"/>
<circle r="4" transform="matrix(1 0 0 -1 510 20)" fill="white"/>
<circle r="4" transform="matrix(1 0 0 -1 754 96)" fill="white"/>
<circle r="3" transform="matrix(1 0 0 -1 445 71)" fill="white"/>
<g opacity="0.3" filter="url(#filter2_d)">
<circle r="2" transform="matrix(0 1 1 0 647 415)" fill="white"/>
<circle r="2" transform="matrix(0 1 1 0 721 349)" fill="white"/>
<circle r="2" transform="matrix(0 1 1 0 805 311)" fill="white"/>
<circle r="2" transform="matrix(0 1 1 0 903 429)" fill="white"/>
<circle r="2" transform="matrix(0 1 1 0 937 337)" fill="white"/>
<circle r="2" transform="matrix(0 1 1 0 987 467)" fill="white"/>
<circle r="2" transform="matrix(0 1 1 0 941 583)" fill="white"/>
<circle r="2" transform="matrix(0 1 1 0 899 517)" fill="white"/>
<circle r="2" transform="matrix(0 1 1 0 763 509)" fill="white"/>
<circle r="2" transform="matrix(0 1 1 0 715 477)" fill="white"/>
<circle r="2" transform="matrix(0 1 1 0 683 529)" fill="white"/>
<circle r="2" transform="matrix(0 1 1 0 725 549)" fill="white"/>
<circle r="2" transform="matrix(0 1 1 0 779 613)" fill="white"/>
<circle r="2" transform="matrix(0 1 1 0 887 273)" fill="white"/>
</g>
<circle r="4" transform="matrix(-1 0 0 1 768 286)" fill="white"/>
<circle r="4" transform="matrix(-1 0 0 1 912 326)" fill="white"/>
<circle r="4" transform="matrix(-1 0 0 1 858 542)" fill="white"/>
<circle r="4" transform="matrix(-1 0 0 1 904 556)" fill="white"/>
<circle r="3" transform="matrix(-1 0 0 1 721 585)" fill="white"/>
<circle r="4" transform="matrix(-1 0 0 1 660 480)" fill="white"/>
<circle r="3" transform="matrix(-1 0 0 1 969 505)" fill="white"/>
<g opacity="0.3" filter="url(#filter3_d)">
<circle r="2" transform="matrix(-1 0 0 1 455 273)" fill="white"/>
<circle r="2" transform="matrix(-1 0 0 1 521 347)" fill="white"/>
<circle r="2" transform="matrix(-1 0 0 1 559 431)" fill="white"/>
<circle r="2" transform="matrix(-1 0 0 1 441 529)" fill="white"/>
<circle r="2" transform="matrix(-1 0 0 1 533 563)" fill="white"/>
<circle r="2" transform="matrix(-1 0 0 1 403 613)" fill="white"/>
<circle r="2" transform="matrix(-1 0 0 1 287 567)" fill="white"/>
<circle r="2" transform="matrix(-1 0 0 1 353 525)" fill="white"/>
<circle r="2" transform="matrix(-1 0 0 1 361 389)" fill="white"/>
<circle r="2" transform="matrix(-1 0 0 1 393 341)" fill="white"/>
<circle r="2" transform="matrix(-1 0 0 1 341 309)" fill="white"/>
<circle r="2" transform="matrix(-1 0 0 1 321 351)" fill="white"/>
<circle r="2" transform="matrix(-1 0 0 1 257 405)" fill="white"/>
<circle r="2" transform="matrix(-1 0 0 1 597 513)" fill="white"/>
</g>
<circle r="4" transform="matrix(0 -1 -1 0 328 484)" fill="white"/>
<circle r="4" transform="matrix(0 -1 -1 0 314 530)" fill="white"/>
<circle r="3" transform="matrix(0 -1 -1 0 285 347)" fill="white"/>
<circle r="4" transform="matrix(0 -1 -1 0 390 286)" fill="white"/>
<circle r="3" transform="matrix(0 -1 -1 0 365 595)" fill="white"/>
<g opacity="0.3" filter="url(#filter4_d)">
<circle r="2" transform="matrix(-1 0 0 1 208 95)" fill="white"/>
<circle r="2" transform="matrix(-1 0 0 1 274 169)" fill="white"/>
<circle r="2" transform="matrix(-1 0 0 1 312 253)" fill="white"/>
<circle r="2" transform="matrix(-1 0 0 1 194 351)" fill="white"/>
<circle r="2" transform="matrix(-1 0 0 1 286 385)" fill="white"/>
<circle r="2" transform="matrix(-1 0 0 1 156 435)" fill="white"/>
<circle r="2" transform="matrix(-1 0 0 1 40 389)" fill="white"/>
<circle r="2" transform="matrix(-1 0 0 1 106 347)" fill="white"/>
<circle r="2" transform="matrix(-1 0 0 1 114 211)" fill="white"/>
<circle r="2" transform="matrix(-1 0 0 1 146 163)" fill="white"/>
<circle r="2" transform="matrix(-1 0 0 1 94 131)" fill="white"/>
<circle r="2" transform="matrix(-1 0 0 1 74 173)" fill="white"/>
<circle r="2" transform="matrix(-1 0 0 1 10 227)" fill="white"/>
<circle r="2" transform="matrix(-1 0 0 1 350 335)" fill="white"/>
</g>
<circle r="4" transform="matrix(0 -1 -1 0 297 360)" fill="white"/>
<circle r="4" transform="matrix(0 -1 -1 0 81 306)" fill="white"/>
<circle r="4" transform="matrix(0 -1 -1 0 67 352)" fill="white"/>
<circle r="3" transform="matrix(0 -1 -1 0 38 169)" fill="white"/>
<circle r="4" transform="matrix(0 -1 -1 0 143 108)" fill="white"/>
<circle r="3" transform="matrix(0 -1 -1 0 118 417)" fill="white"/>
<defs>
<filter id="filter0_d" x="974" y="39" width="360" height="360" filterUnits="userSpaceOnUse" color-interpolation-filters="sRGB">
<feFlood flood-opacity="0" result="BackgroundImageFix"/>
<feColorMatrix in="SourceAlpha" type="matrix" values="0 0 0 0 0 0 0 0 0 0 0 0 0 0 0 0 0 0 127 0"/>
<feOffset dy="4"/>
<feGaussianBlur stdDeviation="4"/>
<feColorMatrix type="matrix" values="0 0 0 0 0 0 0 0 0 0 0 0 0 0 0 0 0 0 0.5 0"/>
<feBlend mode="normal" in2="BackgroundImageFix" result="effect1_dropShadow"/>
<feBlend mode="normal" in="SourceGraphic" in2="effect1_dropShadow" result="shape"/>
</filter>
<filter id="filter1_d" x="417" y="-43" width="360" height="360" filterUnits="userSpaceOnUse" color-interpolation-filters="sRGB">
<feFlood flood-opacity="0" result="BackgroundImageFix"/>
<feColorMatrix in="SourceAlpha" type="matrix" values="0 0 0 0 0 0 0 0 0 0 0 0 0 0 0 0 0 0 127 0"/>
<feOffset dy="4"/>
<feGaussianBlur stdDeviation="4"/>
<feColorMatrix type="matrix" values="0 0 0 0 0 0 0 0 0 0 0 0 0 0 0 0 0 0 0.5 0"/>
<feBlend mode="normal" in2="BackgroundImageFix" result="effect1_dropShadow"/>
<feBlend mode="normal" in="SourceGraphic" in2="effect1_dropShadow" result="shape"/>
</filter>
<filter id="filter2_d" x="637" y="267" width="360" height="360" filterUnits="userSpaceOnUse" color-interpolation-filters="sRGB">
<feFlood flood-opacity="0" result="BackgroundImageFix"/>
<feColorMatrix in="SourceAlpha" type="matrix" values="0 0 0 0 0 0 0 0 0 0 0 0 0 0 0 0 0 0 127 0"/>
<feOffset dy="4"/>
<feGaussianBlur stdDeviation="4"/>
<feColorMatrix type="matrix" values="0 0 0 0 0 0 0 0 0 0 0 0 0 0 0 0 0 0 0.5 0"/>
<feBlend mode="normal" in2="BackgroundImageFix" result="effect1_dropShadow"/>
<feBlend mode="normal" in="SourceGraphic" in2="effect1_dropShadow" result="shape"/>
</filter>
<filter id="filter3_d" x="247" y="267" width="360" height="360" filterUnits="userSpaceOnUse" color-interpolation-filters="sRGB">
<feFlood flood-opacity="0" result="BackgroundImageFix"/>
<feColorMatrix in="SourceAlpha" type="matrix" values="0 0 0 0 0 0 0 0 0 0 0 0 0 0 0 0 0 0 127 0"/>
<feOffset dy="4"/>
<feGaussianBlur stdDeviation="4"/>
<feColorMatrix type="matrix" values="0 0 0 0 0 0 0 0 0 0 0 0 0 0 0 0 0 0 0.5 0"/>
<feBlend mode="normal" in2="BackgroundImageFix" result="effect1_dropShadow"/>
<feBlend mode="normal" in="SourceGraphic" in2="effect1_dropShadow" result="shape"/>
</filter>
<filter id="filter4_d" x="0" y="89" width="360" height="360" filterUnits="userSpaceOnUse" color-interpolation-filters="sRGB">
<feFlood flood-opacity="0" result="BackgroundImageFix"/>
<feColorMatrix in="SourceAlpha" type="matrix" values="0 0 0 0 0 0 0 0 0 0 0 0 0 0 0 0 0 0 127 0"/>
<feOffset dy="4"/>
<feGaussianBlur stdDeviation="4"/>
<feColorMatrix type="matrix" values="0 0 0 0 0 0 0 0 0 0 0 0 0 0 0 0 0 0 0.5 0"/>
<feBlend mode="normal" in2="BackgroundImageFix" result="effect1_dropShadow"/>
<feBlend mode="normal" in="SourceGraphic" in2="effect1_dropShadow" result="shape"/>
</filter>
</defs>
</svg>
